<?xml version="1.0" ?><!DOCTYPE svg  PUBLIC '-//W3C//DTD SVG 1.1//EN'  'http://www.w3.org/Graphics/SVG/1.1/DTD/svg11.dtd'><svg enable-background="new 0 0 128 128" height="128px" id="Layer_1" version="1.1" viewBox="0 0 128 128" width="128px" xml:space="preserve" xmlns="http://www.w3.org/2000/svg" xmlns:xlink="http://www.w3.org/1999/xlink"><g><path d="M64.037,114.131h-0.004c-27.641,0-50.129-22.488-50.131-50.13c0-27.641,22.487-50.129,50.129-50.129   c27.641,0,50.128,22.488,50.128,50.129C114.159,91.643,91.675,114.131,64.037,114.131z M64.031,17.872   c-25.436,0-46.129,20.694-46.129,46.129c0.002,25.436,20.696,46.13,46.131,46.13h0.004c25.432,0,46.122-20.693,46.122-46.13   C110.159,38.566,89.466,17.872,64.031,17.872z"/><path d="M64.036,99.5h-0.003c-19.574,0-35.5-15.926-35.502-35.5c0-19.574,15.925-35.499,35.5-35.499s35.5,15.925,35.5,35.499   C99.531,83.574,83.608,99.5,64.036,99.5z M64.031,32.501c-17.369,0-31.5,14.13-31.5,31.499c0.002,17.37,14.134,31.5,31.502,31.5   h0.003c17.366,0,31.495-14.131,31.495-31.5C95.531,46.631,81.4,32.501,64.031,32.501z"/><path d="M64.031,70.234c-1.664,0-3.229-0.646-4.406-1.82c-2.433-2.438-2.432-6.394-0.002-8.822   c1.178-1.178,2.743-1.826,4.408-1.826s3.23,0.648,4.408,1.827c2.43,2.436,2.428,6.392-0.002,8.819   C67.26,69.588,65.695,70.234,64.031,70.234z M64.031,61.766c-0.597,0-1.157,0.232-1.58,0.655c-0.871,0.871-0.87,2.29,0.002,3.164   c0.837,0.836,2.313,0.841,3.157-0.003c0.871-0.87,0.87-2.289-0.001-3.163C65.188,61.999,64.628,61.766,64.031,61.766z"/></g><path d="M67.025,63.007c-0.512,0-1.023-0.195-1.414-0.586c-0.781-0.781-0.781-2.047,0-2.828L79.414,45.79  c0.781-0.781,2.047-0.781,2.828,0c0.781,0.781,0.781,2.047,0,2.828L68.439,62.421C68.049,62.812,67.537,63.007,67.025,63.007z"/><path d="M61.016,62.986c-0.512,0-1.023-0.195-1.414-0.586l-10.25-10.251c-0.781-0.781-0.781-2.047,0-2.829  c0.781-0.78,2.047-0.781,2.828,0l10.25,10.252c0.781,0.781,0.781,2.047,0,2.828C62.039,62.792,61.527,62.986,61.016,62.986z"/></svg>