<?xml version="1.0" ?><!DOCTYPE svg  PUBLIC '-//W3C//DTD SVG 1.1//EN'  'http://www.w3.org/Graphics/SVG/1.1/DTD/svg11.dtd'><svg enable-background="new 0 0 128 128" height="128px" id="Layer_1" version="1.1" viewBox="0 0 128 128" width="128px" xml:space="preserve" xmlns="http://www.w3.org/2000/svg" xmlns:xlink="http://www.w3.org/1999/xlink"><path d="M30.043,100.033c-0.512,0-1.023-0.195-1.414-0.585c-0.781-0.782-0.781-2.048,0-2.828l12.672-12.671  c0.781-0.78,2.047-0.781,2.828,0c0.781,0.78,0.781,2.048,0,2.828L31.457,99.448C31.066,99.838,30.555,100.033,30.043,100.033z"/><path d="M85.352,44.725c-0.512,0-1.023-0.195-1.414-0.586c-0.781-0.781-0.781-2.047,0-2.828l12.666-12.667  c0.781-0.782,2.047-0.782,2.828,0c0.781,0.781,0.781,2.047,0,2.828L86.766,44.139C86.375,44.53,85.863,44.725,85.352,44.725z"/><path d="M98.018,100.035c-0.512,0-1.023-0.196-1.414-0.586L84.02,86.865c-0.781-0.781-0.781-2.049,0-2.828  c0.781-0.782,2.047-0.782,2.828,0l12.584,12.584c0.781,0.779,0.781,2.047,0,2.828C99.041,99.839,98.529,100.035,98.018,100.035z"/><path d="M42.791,44.807c-0.512,0-1.023-0.196-1.414-0.586L28.629,31.473c-0.781-0.781-0.781-2.047,0-2.828  c0.781-0.782,2.047-0.782,2.828,0l12.748,12.748c0.781,0.78,0.781,2.047,0,2.828C43.814,44.611,43.303,44.807,42.791,44.807z"/><path d="M64.029,114.178c-13.39,0-25.977-5.215-35.443-14.684C9.042,79.951,9.041,48.147,28.584,28.6  c9.468-9.468,22.056-14.682,35.446-14.682S90.009,19.132,99.477,28.6c19.545,19.545,19.545,51.347,0,70.892  C90.008,108.963,77.419,114.178,64.029,114.178z M64.03,17.918c-12.321,0-23.905,4.798-32.618,13.51  C13.429,49.416,13.43,78.682,31.414,96.666c8.712,8.713,20.294,13.512,32.615,13.512s23.905-4.799,32.619-13.513  c17.985-17.986,17.985-47.251,0-65.237C87.936,22.716,76.352,17.918,64.03,17.918z"/><path d="M64.111,96.285c-8.588,0-16.661-3.346-22.732-9.418C28.844,74.33,28.843,53.931,41.377,41.393  c6.073-6.072,14.147-9.416,22.736-9.416s16.662,3.344,22.734,9.416C99.384,53.931,99.385,74.33,86.85,86.864  C80.775,92.939,72.7,96.285,64.111,96.285z M64.113,35.977c-7.521,0-14.591,2.928-19.908,8.244  C33.23,55.199,33.231,73.062,44.207,84.039c5.316,5.318,12.385,8.246,19.904,8.246c7.521,0,14.592-2.93,19.91-8.249  c10.976-10.976,10.975-28.837-0.002-39.815C78.703,38.905,71.634,35.977,64.113,35.977z"/></svg>