<?xml version="1.0" encoding="UTF-8"?>
<!DOCTYPE svg PUBLIC "-//W3C//DTD SVG 1.1//EN" "http://www.w3.org/Graphics/SVG/1.1/DTD/svg11.dtd">
<!-- Creator: CorelDRAW Home & Student 2019 -->
<svg xmlns="http://www.w3.org/2000/svg" xml:space="preserve" width="120px" height="106px" version="1.1" style="shape-rendering:geometricPrecision; text-rendering:geometricPrecision; image-rendering:optimizeQuality; fill-rule:evenodd; clip-rule:evenodd"
viewBox="0 0 53.08 46.69"
 xmlns:xlink="http://www.w3.org/1999/xlink"
 enable-background="new 0 0 128 128">
 <defs>
  <style type="text/css">
   <![CDATA[
    .fil1 {fill:black}
    .fil0 {fill:black;fill-rule:nonzero}
   ]]>
  </style>
 </defs>
 <g id="Warstwa_x0020_1">
  <metadata id="CorelCorpID_0Corel-Layer"/>
  <polygon class="fil0" points="3.37,41.99 3.78,41.99 3.78,46.64 3.37,46.64 3.37,44.46 0.4,44.46 0.4,46.64 0,46.64 0,41.99 0.4,41.99 0.4,44.1 3.37,44.1 "/>
  <path id="1" class="fil0" d="M4.91 46.64l0 -3.2 0.4 0 0 3.2 -0.4 0zm-0.06 -4.55l0.53 0 0 0.51 -0.53 0 0 -0.51z"/>
  <path id="2" class="fil0" d="M7.42 46.69c-0.51,0 -0.92,-0.14 -1.25,-0.43l0.16 -0.31c0.17,0.14 0.34,0.24 0.51,0.3 0.17,0.06 0.37,0.09 0.6,0.09 0.26,0 0.46,-0.05 0.59,-0.14 0.14,-0.09 0.21,-0.22 0.21,-0.39 0,-0.14 -0.04,-0.25 -0.14,-0.34 -0.09,-0.08 -0.24,-0.15 -0.44,-0.19l-0.54 -0.13c-0.26,-0.06 -0.46,-0.17 -0.61,-0.32 -0.15,-0.15 -0.22,-0.33 -0.22,-0.54 0,-0.27 0.11,-0.5 0.32,-0.67 0.22,-0.17 0.5,-0.26 0.87,-0.26 0.22,0 0.43,0.04 0.63,0.11 0.19,0.07 0.35,0.18 0.48,0.31l-0.15 0.32c-0.15,-0.14 -0.3,-0.23 -0.46,-0.3 -0.16,-0.06 -0.32,-0.09 -0.5,-0.09 -0.25,0 -0.44,0.05 -0.57,0.15 -0.14,0.09 -0.21,0.23 -0.21,0.4 0,0.14 0.05,0.26 0.13,0.34 0.09,0.09 0.22,0.16 0.4,0.2l0.55 0.13c0.58,0.14 0.87,0.42 0.87,0.86 0,0.28 -0.11,0.49 -0.33,0.66 -0.22,0.16 -0.52,0.24 -0.9,0.24z"/>
  <path id="3" class="fil0" d="M10.8 46.35c0.09,0 0.19,-0.01 0.28,-0.02l-0.02 0.33c-0.09,0.02 -0.2,0.02 -0.31,0.02 -0.36,0 -0.63,-0.09 -0.82,-0.29 -0.18,-0.2 -0.27,-0.46 -0.27,-0.8l0 -1.82 -0.64 0 0 -0.33 0.64 0 0 -0.99 0.4 0 0 0.99 0.94 0 0 0.33 -0.94 0 0 1.77c0,0.26 0.06,0.47 0.19,0.6 0.12,0.14 0.31,0.21 0.55,0.21z"/>
  <path id="4" class="fil0" d="M12.93 46.69c-0.29,0 -0.55,-0.07 -0.77,-0.2 -0.23,-0.14 -0.4,-0.33 -0.52,-0.59 -0.13,-0.25 -0.19,-0.54 -0.19,-0.87 0,-0.34 0.06,-0.63 0.19,-0.88 0.12,-0.25 0.29,-0.45 0.52,-0.58 0.22,-0.14 0.48,-0.21 0.77,-0.21 0.29,0 0.55,0.07 0.77,0.21 0.23,0.13 0.4,0.33 0.52,0.58 0.12,0.25 0.18,0.54 0.18,0.88 0,0.33 -0.06,0.62 -0.18,0.87 -0.12,0.26 -0.29,0.45 -0.52,0.59 -0.22,0.13 -0.48,0.2 -0.77,0.2zm-0.01 -0.36c0.34,0 0.61,-0.11 0.79,-0.33 0.19,-0.23 0.28,-0.55 0.28,-0.97 0,-0.42 -0.1,-0.74 -0.28,-0.97 -0.19,-0.23 -0.45,-0.35 -0.78,-0.35 -0.33,0 -0.59,0.12 -0.78,0.35 -0.18,0.23 -0.28,0.55 -0.28,0.97 0,0.42 0.09,0.74 0.28,0.97 0.18,0.22 0.44,0.33 0.77,0.33z"/>
  <path id="5" class="fil0" d="M16.93 43.71l-0.28 0.03c-0.35,0.03 -0.6,0.15 -0.76,0.34 -0.15,0.18 -0.23,0.42 -0.23,0.69l0 1.87 -0.4 0 0 -3.2 0.39 0 0 0.56c0.1,-0.2 0.24,-0.34 0.41,-0.44 0.18,-0.1 0.4,-0.16 0.67,-0.18l0.17 -0.02 0.03 0.35z"/>
  <path id="6" class="fil0" d="M17.49 46.64l0 -3.2 0.41 0 0 3.2 -0.41 0zm-0.05 -4.55l0.52 0 0 0.51 -0.52 0 0 -0.51z"/>
  <path id="7" class="fil0" d="M20.23 43.36c0.39,0 0.68,0.1 0.87,0.31 0.19,0.2 0.28,0.5 0.28,0.91l0 2.06 -0.39 0 0 -0.57c-0.09,0.2 -0.23,0.35 -0.4,0.46 -0.18,0.11 -0.38,0.16 -0.61,0.16 -0.21,0 -0.4,-0.04 -0.57,-0.12 -0.17,-0.09 -0.31,-0.21 -0.41,-0.35 -0.1,-0.15 -0.14,-0.32 -0.14,-0.5 0,-0.24 0.06,-0.42 0.18,-0.55 0.12,-0.14 0.33,-0.23 0.61,-0.29 0.29,-0.06 0.69,-0.08 1.2,-0.08l0.14 0 0 -0.25c0,-0.29 -0.06,-0.5 -0.18,-0.64 -0.12,-0.13 -0.31,-0.2 -0.56,-0.2 -0.2,0 -0.38,0.03 -0.56,0.08 -0.18,0.06 -0.36,0.15 -0.55,0.27l-0.15 -0.31c0.16,-0.12 0.35,-0.21 0.58,-0.28 0.22,-0.07 0.44,-0.11 0.66,-0.11zm-0.22 2.98c0.29,0 0.52,-0.1 0.7,-0.29 0.19,-0.19 0.28,-0.44 0.28,-0.74l0 -0.22 -0.13 0c-0.42,0 -0.74,0.02 -0.97,0.06 -0.22,0.03 -0.38,0.09 -0.47,0.18 -0.1,0.08 -0.14,0.21 -0.14,0.37 0,0.19 0.07,0.34 0.21,0.46 0.14,0.12 0.31,0.18 0.52,0.18z"/>
  <polygon id="8" class="fil0" points="24.41,46.31 26.58,46.31 26.58,46.64 23.89,46.64 23.89,46.37 26.01,43.77 23.97,43.77 23.97,43.44 26.5,43.44 26.5,43.75 "/>
  <path id="9" class="fil0" d="M28.63 43.36c0.39,0 0.68,0.1 0.87,0.31 0.19,0.2 0.28,0.5 0.28,0.91l0 2.06 -0.39 0 0 -0.57c-0.09,0.2 -0.23,0.35 -0.4,0.46 -0.18,0.11 -0.38,0.16 -0.61,0.16 -0.21,0 -0.4,-0.04 -0.57,-0.12 -0.17,-0.09 -0.31,-0.21 -0.41,-0.35 -0.09,-0.15 -0.14,-0.32 -0.14,-0.5 0,-0.24 0.06,-0.42 0.18,-0.55 0.12,-0.14 0.33,-0.23 0.61,-0.29 0.29,-0.06 0.69,-0.08 1.2,-0.08l0.14 0 0 -0.25c0,-0.29 -0.06,-0.5 -0.18,-0.64 -0.12,-0.13 -0.31,-0.2 -0.56,-0.2 -0.19,0 -0.38,0.03 -0.56,0.08 -0.18,0.06 -0.36,0.15 -0.55,0.27l-0.15 -0.31c0.16,-0.12 0.35,-0.21 0.58,-0.28 0.22,-0.07 0.44,-0.11 0.66,-0.11zm-0.22 2.98c0.29,0 0.52,-0.1 0.7,-0.29 0.19,-0.19 0.28,-0.44 0.28,-0.74l0 -0.22 -0.13 0c-0.42,0 -0.74,0.02 -0.97,0.06 -0.22,0.03 -0.38,0.09 -0.47,0.18 -0.1,0.08 -0.14,0.21 -0.14,0.37 0,0.19 0.07,0.34 0.21,0.46 0.14,0.12 0.31,0.18 0.52,0.18z"/>
  <path id="10" class="fil0" d="M34.3 43.36c0.7,0 1.06,0.42 1.06,1.24l0 2.04 -0.4 0 0 -2.01c0,-0.32 -0.06,-0.55 -0.18,-0.7 -0.11,-0.14 -0.29,-0.21 -0.54,-0.21 -0.29,0 -0.52,0.1 -0.69,0.29 -0.17,0.19 -0.25,0.46 -0.25,0.79l0 1.84 -0.4 0 0 -2.01c0,-0.32 -0.06,-0.55 -0.18,-0.7 -0.11,-0.14 -0.29,-0.21 -0.54,-0.21 -0.29,0 -0.52,0.1 -0.69,0.29 -0.17,0.19 -0.25,0.46 -0.25,0.79l0 1.84 -0.4 0 0 -3.2 0.39 0 0 0.53c0.09,-0.2 0.23,-0.35 0.4,-0.45 0.17,-0.11 0.38,-0.16 0.61,-0.16 0.51,0 0.84,0.21 0.98,0.64 0.09,-0.2 0.23,-0.36 0.42,-0.47 0.19,-0.11 0.41,-0.17 0.66,-0.17z"/>
  <path id="11" class="fil0" d="M37.68 46.69c-0.3,0 -0.56,-0.07 -0.78,-0.2 -0.22,-0.14 -0.39,-0.33 -0.52,-0.59 -0.12,-0.25 -0.18,-0.54 -0.18,-0.87 0,-0.34 0.06,-0.63 0.18,-0.88 0.13,-0.25 0.3,-0.45 0.52,-0.58 0.22,-0.14 0.48,-0.21 0.78,-0.21 0.29,0 0.55,0.07 0.77,0.21 0.22,0.13 0.4,0.33 0.52,0.58 0.12,0.25 0.18,0.54 0.18,0.88 0,0.33 -0.06,0.62 -0.18,0.87 -0.12,0.26 -0.3,0.45 -0.52,0.59 -0.22,0.13 -0.48,0.2 -0.77,0.2zm-0.01 -0.36c0.34,0 0.6,-0.11 0.79,-0.33 0.18,-0.23 0.27,-0.55 0.27,-0.97 0,-0.42 -0.09,-0.74 -0.28,-0.97 -0.18,-0.23 -0.44,-0.35 -0.77,-0.35 -0.34,0 -0.6,0.12 -0.78,0.35 -0.19,0.23 -0.28,0.55 -0.28,0.97 0,0.42 0.09,0.74 0.27,0.97 0.18,0.22 0.44,0.33 0.78,0.33zm0.16 -3.32l-0.3 0 0.66 -1.33 0.5 0 -0.86 1.33z"/>
  <polygon id="12" class="fil0" points="44.33,43.44 44.75,43.44 43.58,46.64 43.17,46.64 42.2,43.96 41.23,46.64 40.81,46.64 39.65,43.44 40.08,43.44 41.03,46.17 42.02,43.44 42.41,43.44 43.38,46.17 "/>
  <path id="13" class="fil0" d="M45.49 46.64l0 -3.2 0.4 0 0 3.2 -0.4 0zm-0.06 -4.55l0.53 0 0 0.51 -0.53 0 0 -0.51z"/>
  <path id="14" class="fil0" d="M49.59 45.09l-2.42 0c0.01,0.4 0.12,0.71 0.31,0.92 0.2,0.22 0.48,0.32 0.85,0.32 0.39,0 0.74,-0.13 1.05,-0.39l0.16 0.31c-0.14,0.14 -0.32,0.24 -0.54,0.32 -0.22,0.08 -0.44,0.12 -0.67,0.12 -0.49,0 -0.87,-0.15 -1.16,-0.44 -0.28,-0.3 -0.42,-0.7 -0.42,-1.22 0,-0.33 0.06,-0.62 0.19,-0.87 0.12,-0.26 0.3,-0.45 0.53,-0.59 0.22,-0.14 0.49,-0.21 0.78,-0.21 0.42,0 0.75,0.14 0.98,0.41 0.24,0.27 0.36,0.66 0.36,1.14l0 0.18zm-1.34 -1.4c-0.31,0 -0.55,0.1 -0.74,0.29 -0.18,0.2 -0.29,0.47 -0.33,0.82l2.04 0c-0.01,-0.36 -0.1,-0.63 -0.26,-0.82 -0.17,-0.19 -0.41,-0.29 -0.71,-0.29z"/>
  <path id="15" class="fil0" d="M51.93 43.36c0.77,0 1.15,0.42 1.15,1.24l0 2.04 -0.4 0 0 -2.01c0,-0.32 -0.06,-0.55 -0.19,-0.69 -0.13,-0.15 -0.33,-0.22 -0.61,-0.22 -0.31,0 -0.57,0.1 -0.76,0.29 -0.19,0.19 -0.29,0.45 -0.29,0.78l0 1.85 -0.4 0 0 -3.2 0.4 0 0 0.55c0.1,-0.2 0.24,-0.36 0.44,-0.47 0.19,-0.1 0.41,-0.16 0.66,-0.16zm-0.03 -0.35l-0.3 0 0.66 -1.33 0.51 0 -0.87 1.33z"/>
  <g id="iconfinder_circle-check_430087.svg">
   <g>
    <g>
     <path class="fil1" d="M34.24 11.41l-10.76 10.76 -4.09 -4.09c-0.27,-0.27 -0.71,-0.27 -0.99,0 -0.27,0.27 -0.27,0.72 0,0.99l5.08 5.08 11.75 -11.76c0.27,-0.27 0.27,-0.71 0,-0.98 -0.27,-0.28 -0.72,-0.28 -0.99,0zm-7.42 -11.41c-9.67,0 -17.53,7.86 -17.53,17.53 0,9.66 7.86,17.53 17.53,17.53l0 0c9.66,0 17.52,-7.87 17.52,-17.53 0,-9.67 -7.86,-17.53 -17.52,-17.53zm0 33.66l0 0c-8.9,0 -16.13,-7.24 -16.13,-16.13 0,-8.9 7.23,-16.13 16.13,-16.13 8.89,0 16.13,7.23 16.13,16.13 0,8.89 -7.24,16.13 -16.13,16.13z"/>
    </g>
   </g>
  </g>
 </g>
</svg>
